<svg xmlns="http://www.w3.org/2000/svg" viewBox="0 0 1744.32 471.84"><defs><style>.cls-1{fill:#fff;}</style></defs><g id="Layer_2" data-name="Layer 2"><g id="Layer_1-2" data-name="Layer 1"><path class="cls-1" d="M341.17.5a95.14,95.14,0,0,1,58.88,28.22Q426.32,55,452.7,81.25c.62.62,1.33,1.15,2.38,2a15,15,0,0,1-2,.35L366,83.74c-3.76,0-7.52-.12-11.28,0a4.46,4.46,0,0,1-3.57-1.45c-4.92-5-9.92-10-14.9-15a39.94,39.94,0,0,0-14.61-9.38,5.08,5.08,0,0,0-3.7,0A39.68,39.68,0,0,0,303,67.27q-35.43,35.49-70.8,71l-22,22.09Q186.65,184,163.1,207.64c-8.53,8.57-12.62,18.93-11.87,31a39.15,39.15,0,0,0,10.63,24.6c.65.7,1.32,1.38,2,2.06Q192.93,294.48,222,323.6l63.36,63.55q8.72,8.75,17.44,17.51a42.94,42.94,0,0,0,14.93,9.79,5.17,5.17,0,0,0,4.1-.06,42.74,42.74,0,0,0,14.47-9.62Q357.67,383.38,379,362a5.87,5.87,0,0,1,4.61-1.88q42,.06,84,0c4.48,0,9,0,13.44.05h2c-.7.82-1.05,1.31-1.47,1.73-27.71,27.72-55.33,55.53-83.16,83.11a92.09,92.09,0,0,1-52.1,26c-1.56.24-3.1.58-4.64.87H298c-2.66-.46-5.32-.9-8-1.39-19-3.55-35.56-11.93-49.24-25.56-47.4-47.25-94.91-94.41-141.9-142.08C76,279.57,67.72,251,73.17,218.85,76.54,199,86,182,100.23,167.78q69.5-69.45,138.92-139A95.73,95.73,0,0,1,298.47.47L303.76,0H311a6.18,6.18,0,0,0,5.28,0h19.2Z"/><path class="cls-1" d="M0,243.84V228.48a9.86,9.86,0,0,0,.45-1.56c.82-6.09,1.38-12.22,2.46-18.26A145.13,145.13,0,0,1,21.17,160a153.65,153.65,0,0,1,23.91-30.48q22.19-22.08,44.35-44.18,15.54-15.51,31-31A182.84,182.84,0,0,1,239.57.41a10.4,10.4,0,0,0,1.8-.41H250a21.45,21.45,0,0,1-1.8,2.4L87.94,162.75c-2.26,2.26-4.46,4.59-6.52,7-15.13,17.92-23,38.72-24.19,62.05a103,103,0,0,0,23,68.95c4.61,5.51,9.72,10.6,14.8,15.69Q171.69,393.29,248.47,470c.55.56,1,1.2,1.54,1.8h-13a7.14,7.14,0,0,0-1.32-.4c-3.1-.35-6.2-.61-9.28-1A173.73,173.73,0,0,1,194,463.2a183.45,183.45,0,0,1-73.34-44.81q-38-37.93-75.94-76a159.5,159.5,0,0,1-11.22-12.46A146.59,146.59,0,0,1,.87,248.48,44,44,0,0,0,0,243.84Z"/><path class="cls-1" d="M1743.78,125.81l.54,0V264.48l-.52,0c0-.87,0-1.75,0-2.63V128.45C1743.84,127.57,1743.8,126.69,1743.78,125.81Z"/><path class="cls-1" d="M1744.32,346.56l-.57-.08c0-1.11.08-2.23.09-3.35q.06-7.67.1-15.33a.29.29,0,0,1,.38,0Z"/><path class="cls-1" d="M316.23,0A6.18,6.18,0,0,1,311,0Z"/><path class="cls-1" d="M1305.69,346.52V125.76h2.44c32.79,0,65.58-.07,98.36,0,14,0,27.52,2.38,40.22,8.54,9,4.38,16.63,10.46,22.14,18.94,6.83,10.48,8.92,22.09,8,34.38a52.69,52.69,0,0,1-4.73,18.48A50.37,50.37,0,0,1,1454.87,226c-2.82,2-5.79,3.69-8.84,5.63.56.25,1.07.52,1.61.71,7.9,2.92,15.49,6.44,22.24,11.57,11.95,9.06,18.08,21.2,19.21,36.05a62.25,62.25,0,0,1-3.1,26c-4.4,12.36-12.68,21.49-23.88,28.09a86.54,86.54,0,0,1-28,10.07,141.58,141.58,0,0,1-26.71,2.36q-49.78,0-99.56,0ZM1343.77,312h52c5.52,0,11,.08,16.54-.12a56.92,56.92,0,0,0,20.32-4.1c10.55-4.45,16.89-12.12,17.73-23.76.8-10.94-3-19.79-12.67-25.51a45.93,45.93,0,0,0-8.29-3.69,66,66,0,0,0-21.23-3.22c-20.94-.12-41.89-.07-62.83-.07a13.37,13.37,0,0,0-1.62.18Zm0-93.3h2.68c15.92,0,31.83,0,47.74,0,3.44,0,6.88-.08,10.3-.37a50.34,50.34,0,0,0,18-4.62c7.08-3.46,12.18-8.67,14.48-16.36a30.57,30.57,0,0,0,1.1-11.64c-.74-8.24-4.47-14.75-11.55-19.17a36.06,36.06,0,0,0-5.76-2.89,51,51,0,0,0-19-3.42q-28.18-.08-56.37-.07c-.53,0-1.06.09-1.63.14Z"/><path class="cls-1" d="M929.06,263l59.41,83.34c-.8.09-1.23.18-1.66.19-14.08,0-28.15,0-42.23,0a3.35,3.35,0,0,1-3-1.79q-19.65-28-39.36-55.89-6.15-8.72-12.3-17.44c-.41-.59-.85-1.16-1.27-1.73H840.15v76.66H801.3V125.9c.77-.06,1.39-.14,2-.14,33,0,65.9-.09,98.84,0,14.77.06,29.14,2.57,42.54,9.1,21.2,10.32,33.29,27.28,36.23,50.68a76.92,76.92,0,0,1-3.1,34.58c-5.56,16.45-16.48,28.3-31.8,36.11-4.53,2.31-9.43,3.91-14.16,5.81C931.05,262.4,930.21,262.62,929.06,263Zm-88.82-28a7.81,7.81,0,0,0,1,.13c19.42,0,38.84.07,58.26-.09a53.25,53.25,0,0,0,20.31-4.12c9.07-3.82,16-9.88,19.75-19.15a38.15,38.15,0,0,0,2.33-18.37c-1.18-12.21-7-21.38-18.14-26.89a53,53,0,0,0-23.41-5.28c-19.74-.15-39.49-.08-59.23-.1a5.07,5.07,0,0,0-.9.17Z"/><path class="cls-1" d="M1044.59,125.82h38.81v2.83q0,60.82,0,121.66c0,9.16.83,18.2,3.52,27,3.09,10.09,8.2,18.88,16.49,25.62a49.43,49.43,0,0,0,23.21,10.22,69,69,0,0,0,32.73-1.81c16.4-5.14,26.57-16.49,31.67-32.66a83.65,83.65,0,0,0,3.53-25.31q0-62.26,0-124.54v-2.94h38.69a17.78,17.78,0,0,1,.18,1.79q0,61.8,0,123.58c0,13.26-1.47,26.32-5.41,39-5,16-13.4,29.83-26.64,40.41a82.61,82.61,0,0,1-34,16c-20.71,4.67-41.41,4.56-61.92-1.13-18.58-5.15-33.79-15.32-44.71-31.45a90.31,90.31,0,0,1-13.17-31.68,137.08,137.08,0,0,1-3-29.76q0-62.15,0-124.3Z"/><path class="cls-1" d="M740.2,156.35,715.28,185c-2-1.75-3.85-3.39-5.74-5-9-7.64-18.77-14.2-30.07-18-21.91-7.32-43.17-6.14-63.2,6-15.32,9.27-25.58,22.89-31,39.83-8.59,26.93-5.77,52.65,10.24,76.26C606.27,300,621.36,310,640.3,313.31c20.43,3.6,39.57-.2,57-11.72a137.48,137.48,0,0,0,16.2-12.73l3.35-3,24.92,25.33c-1.51,1.51-2.89,2.92-4.3,4.3-10.17,10-21.35,18.54-34.36,24.54a108.45,108.45,0,0,1-31.91,9,126.93,126.93,0,0,1-29,.78c-39.7-4-69.6-23.15-88.88-58.25a110,110,0,0,1-12.69-42.18c-2.23-21.78.64-42.83,10-62.66,16-34,42.6-54.75,79.34-62.46,13.34-2.8,26.81-2.87,40.33-1.45a111.58,111.58,0,0,1,40.23,11.74A127.49,127.49,0,0,1,740.2,156.35Z"/><path class="cls-1" d="M1743.94,327.8q0,7.67-.1,15.33c0,1.12-.06,2.24-.09,3.35-10.16,0-20.31,0-30.47.09-1.5,0-2.1-.84-2.83-1.79l-32.62-42.09-86.11-111.12c-.34-.44-.7-.87-1.23-1.54-.57,2.2-.21,4.22-.27,6.22s0,4.16,0,6.24V346.36h-38.07V126a10.54,10.54,0,0,1,1.48-.21c10.71,0,21.43,0,32.15-.06,1.6,0,2.26.85,3,1.85l34,43.79,119.71,154.28C1743,326.31,1743.45,327.07,1743.94,327.8Z"/><path class="cls-1" d="M1743.78,125.81c0,.88.06,1.76.06,2.64V261.81c0,.88,0,1.76,0,2.63-3-3.81-6.07-7.6-9.06-11.44q-13.76-17.72-27.49-35.43a5.65,5.65,0,0,1-1.28-3.72q0-42.82,0-85.65c0-.71.06-1.41.11-2.39Z"/><path class="cls-1" d="M440.58,236.42a18.87,18.87,0,0,1-37.46,3.36c-1-5.77-2.49-11.43-5.5-16.5A48.33,48.33,0,0,0,392,215.6c-3.16-3.49-6.6-6.73-10-10a55.45,55.45,0,0,0-19.63-13,42.87,42.87,0,0,0-8.52-2.34,19.13,19.13,0,0,1-15.71-16.46c-1.25-10.39,6.59-20.13,16.74-21.09A19,19,0,0,1,375.71,169a51.34,51.34,0,0,0,7,19.72,50.82,50.82,0,0,0,6.15,7.93A121.59,121.59,0,0,0,400,207.14c6.24,5.06,13.63,7.91,21.4,9.78,1.31.32,2.63.67,4,.91A18.66,18.66,0,0,1,440.58,236.42Z"/><path class="cls-1" d="M351.39,325.5c-8.66.2-16.89-6.76-18.4-15.53-1.13-6.58-3-12.91-6.66-18.59a21,21,0,0,0-2.09-2.93c-6.54-7.12-13.06-14.27-21-19.9a49.33,49.33,0,0,0-20-8.34,18.65,18.65,0,0,1-15.43-19.37,19,19,0,0,1,16.62-18,18.83,18.83,0,0,1,20.75,14.86c1.29,6.69,3,13.24,6.25,19.28a40.42,40.42,0,0,0,7.23,9.8c3.32,3.24,6.47,6.66,10,9.64,7.07,6,15.49,9.11,24.4,11.11,1,.23,2,.38,3.05.63A19.09,19.09,0,0,1,370.49,308a19.39,19.39,0,0,1-16.23,17.37C353.32,325.49,352.35,325.46,351.39,325.5Z"/><path class="cls-1" d="M364.21,230a18.9,18.9,0,0,1-37.44,3.86A62.3,62.3,0,0,0,323,220.5,35.49,35.49,0,0,0,315.31,209c-4.74-4.62-9.34-9.43-14.34-13.77a48.67,48.67,0,0,0-24.15-11.46c-9-1.51-15.31-9.53-15.27-18.82a19,19,0,0,1,15.56-18.42A18.79,18.79,0,0,1,299,161.35a70.9,70.9,0,0,0,3.81,14.07,44,44,0,0,0,9.87,15.15c3.61,3.51,7.09,7.19,11,10.32,7.07,5.65,15.42,8.63,24.23,10.33,6.64,1.28,11.62,4.71,14.56,10.87A18,18,0,0,1,364.21,230Z"/><path class="cls-1" d="M209.94,216.81c8.6-.33,17.05,6.72,18.5,15.41a59.56,59.56,0,0,0,6,18.6,41.08,41.08,0,0,0,7.33,10c3.14,3.07,6.13,6.32,9.45,9.19,6.8,5.89,14.91,9.16,23.56,11.23,1.4.34,2.81.6,4.21.93a18.95,18.95,0,1,1-22.76,22.55,69.28,69.28,0,0,0-3.74-13.35,36.48,36.48,0,0,0-8-12.09c-4.82-4.67-9.46-9.55-14.55-13.91a47.84,47.84,0,0,0-23.56-11.06A18.66,18.66,0,0,1,191,235.87a19,19,0,0,1,15.4-18.79A32.79,32.79,0,0,1,209.94,216.81Z"/><path class="cls-1" d="M496.42,125.69H494.1q-48.54,0-97.08,0a4.88,4.88,0,0,1-4-1.62c-2.8-3-5.74-5.79-8.61-8.68-.5-.49-.95-1-1.64-1.77.91-.06,1.52-.14,2.12-.14l86.29-.09q6,0,12,.11a3.78,3.78,0,0,1,2.39.7c3.75,3.58,7.39,7.28,11.06,10.94Z"/><path class="cls-1" d="M315.62,111.26c9.88-.27,18.87,8.15,18.82,18.92,0,9.41-7.14,18.87-18.93,18.87a18.9,18.9,0,1,1,.11-37.79Z"/><path class="cls-1" d="M405.55,271.51c.26,10.42-8.68,18.93-18.84,18.92-9.09,0-18.89-6.91-18.95-18.87a18.9,18.9,0,1,1,37.79-.05Z"/><path class="cls-1" d="M335,342a18.91,18.91,0,1,1-18.87-18.92A18.79,18.79,0,0,1,335,342Z"/><path class="cls-1" d="M226.47,200.34a18.92,18.92,0,1,1,37.83,0,18.92,18.92,0,0,1-37.83,0Z"/><path class="cls-1" d="M358.68,89.76h2.63q48.92,0,97.84,0a4.31,4.31,0,0,1,3.54,1.5c1.22,1.35,2.61,2.54,4.25,4.11a15,15,0,0,1-1.75.26l-99,0a3.37,3.37,0,0,1-2.74-1.08C362,93,360.54,91.63,358.68,89.76Z"/><path class="cls-1" d="M371.37,101.68H384.5q43.29,0,86.59,0a4.24,4.24,0,0,1,3.55,1.49,34.82,34.82,0,0,1,3.65,4.32H476.5q-48.94,0-97.87,0a4.54,4.54,0,0,1-3.74-1.6c-1.16-1.3-2.49-2.46-3.75-3.68Z"/></g></g></svg>